<svg width="24" height="24" viewBox="0 0 24 24" fill="none" xmlns="http://www.w3.org/2000/svg">
<path fill-rule="evenodd" clip-rule="evenodd" d="M12.0005 4C9.82767 4 9.55522 4.00921 8.70189 4.04815C7.85033 4.08698 7.26875 4.22224 6.75986 4.42003C6.23376 4.62446 5.78759 4.89802 5.34279 5.34279C4.89802 5.78759 4.62446 6.23376 4.42003 6.75986C4.22224 7.26875 4.08698 7.85033 4.04815 8.70189C4.00921 9.55522 4 9.82767 4 12.0005C4 14.1733 4.00921 14.4457 4.04815 15.2991C4.08698 16.1506 4.22224 16.7322 4.42003 17.2411C4.62446 17.7672 4.89802 18.2134 5.34279 18.6582C5.78759 19.1029 6.23376 19.3765 6.75986 19.5809C7.26875 19.7787 7.85033 19.914 8.70189 19.9528C9.55522 19.9917 9.82767 20.0009 12.0005 20.0009C14.1733 20.0009 14.4457 19.9917 15.2991 19.9528C16.1506 19.914 16.7322 19.7787 17.2411 19.5809C17.7672 19.3765 18.2134 19.1029 18.6582 18.6582C19.1029 18.2134 19.3765 17.7672 19.5809 17.2411C19.7787 16.7322 19.914 16.1506 19.9528 15.2991C19.9917 14.4457 20.0009 14.1733 20.0009 12.0005C20.0009 9.82767 19.9917 9.55522 19.9528 8.70189C19.914 7.85033 19.7787 7.26875 19.5809 6.75986C19.3765 6.23376 19.1029 5.78759 18.6582 5.34279C18.2134 4.89802 17.7672 4.62446 17.2411 4.42003C16.7322 4.22224 16.1506 4.08698 15.2991 4.04815C14.4457 4.00921 14.1733 4 12.0005 4ZM12.0005 5.44152C14.1367 5.44152 14.3897 5.44969 15.2333 5.48818C16.0134 5.52375 16.437 5.65408 16.7189 5.76364C17.0924 5.90878 17.3589 6.08214 17.6388 6.36212C17.9188 6.64207 18.0922 6.90858 18.2373 7.28202C18.3469 7.56394 18.4772 7.98756 18.5128 8.76759C18.5513 9.61121 18.5594 9.86426 18.5594 12.0005C18.5594 14.1367 18.5513 14.3897 18.5128 15.2333C18.4772 16.0134 18.3469 16.437 18.2373 16.7189C18.0922 17.0924 17.9188 17.3589 17.6388 17.6388C17.3589 17.9188 17.0924 18.0922 16.7189 18.2373C16.437 18.3469 16.0134 18.4772 15.2333 18.5128C14.3899 18.5513 14.1368 18.5594 12.0005 18.5594C9.8641 18.5594 9.61112 18.5513 8.76759 18.5128C7.98756 18.4772 7.56394 18.3469 7.28202 18.2373C6.90858 18.0922 6.64207 17.9188 6.36212 17.6388C6.08218 17.3589 5.90878 17.0924 5.76364 16.7189C5.65408 16.437 5.52375 16.0134 5.48818 15.2333C5.44969 14.3897 5.44152 14.1367 5.44152 12.0005C5.44152 9.86426 5.44969 9.61121 5.48818 8.76759C5.52375 7.98756 5.65408 7.56394 5.76364 7.28202C5.90878 6.90858 6.08214 6.64207 6.36212 6.36212C6.64207 6.08214 6.90858 5.90878 7.28202 5.76364C7.56394 5.65408 7.98756 5.52375 8.76759 5.48818C9.61121 5.44969 9.86426 5.44152 12.0005 5.44152ZM12.0005 14.6673C10.5276 14.6673 9.33365 13.4733 9.33365 12.0005C9.33365 10.5276 10.5276 9.33365 12.0005 9.33365C13.4733 9.33365 14.6673 10.5276 14.6673 12.0005C14.6673 13.4733 13.4733 14.6673 12.0005 14.6673ZM12.0005 7.89212C9.73148 7.89212 7.89212 9.73148 7.89212 12.0005C7.89212 14.2695 9.73148 16.1088 12.0005 16.1088C14.2695 16.1088 16.1088 14.2695 16.1088 12.0005C16.1088 9.73148 14.2695 7.89212 12.0005 7.89212ZM16.2711 8.68985C16.8014 8.68985 17.2312 8.26004 17.2312 7.72981C17.2312 7.19958 16.8014 6.76974 16.2711 6.76974C15.7409 6.76974 15.3111 7.19958 15.3111 7.72981C15.3111 8.26004 15.7409 8.68985 16.2711 8.68985Z" fill="white"/>
</svg> 
