<svg width="24" height="24" viewBox="0 0 24 24" fill="none" xmlns="http://www.w3.org/2000/svg">
<path fill-rule="evenodd" clip-rule="evenodd" d="M17.6223 17.6912C16.1774 19.1187 14.1916 20 12 20C11.1734 20 10.3762 19.8746 9.62613 19.6419C9.95515 19.1073 10.4347 18.2483 10.6107 17.5572L11.1111 15.6543C11.3679 16.1547 12.1317 16.5761 12.9416 16.5761C15.3514 16.5761 17.0897 14.3572 17.0897 11.5984C17.0897 8.95144 14.93 6.97613 12.158 6.97613C8.70123 6.97613 6.87078 9.29383 6.87078 11.8156C6.87078 12.9942 7.4963 14.4494 8.49712 14.9169C8.64856 14.9893 8.73416 14.9564 8.76708 14.8115C8.77801 14.7651 8.80824 14.6437 8.8441 14.4997C8.89461 14.2969 8.95629 14.0492 8.99095 13.9029C9.0107 13.8239 9.00411 13.7514 8.93827 13.6724C8.60905 13.2708 8.34568 12.5333 8.34568 11.8486C8.34568 10.084 9.6823 8.3786 11.9605 8.3786C13.9292 8.3786 15.3053 9.71523 15.3053 11.6313C15.3053 13.7909 14.2123 15.2922 12.7901 15.2922C12.0066 15.2922 11.414 14.6403 11.6049 13.8436C11.687 13.5037 11.7949 13.1547 11.8999 12.8151C12.0897 12.2009 12.27 11.6179 12.27 11.177C12.27 10.5646 11.9407 10.051 11.256 10.051C10.4527 10.051 9.80741 10.8807 9.80741 11.9934C9.80741 12.6979 10.0444 13.1786 10.0444 13.1786C10.0444 13.1786 9.25432 16.53 9.10946 17.1556C8.95161 17.8462 9.01058 18.8193 9.0829 19.4515C6.10723 18.2857 4 15.3889 4 12C4 7.58621 7.5749 4.007 11.9871 4.00001C11.9914 4 11.9957 4 12 4C16.4181 4 20 7.58189 19.9868 12.0132C19.9868 14.233 19.0826 16.2418 17.6223 17.6912Z" fill="white"/>
</svg> 
