<svg width="80" height="16" viewBox="0 0 80 16" fill="none" xmlns="http://www.w3.org/2000/svg">
<path d="M8 3L9.46946 5.97746L12.7553 6.45492L10.3776 8.77254L10.9389 12.0451L8 10.5L5.06107 12.0451L5.62236 8.77254L3.24472 6.45492L6.53054 5.97746L8 3Z" fill="#008934" stroke="#008934" stroke-width="1.25" stroke-linejoin="round"/>
<path d="M24 3L25.4695 5.97746L28.7553 6.45492L26.3776 8.77254L26.9389 12.0451L24 10.5L21.0611 12.0451L21.6224 8.77254L19.2447 6.45492L22.5305 5.97746L24 3Z" fill="#008934" stroke="#008934" stroke-width="1.25" stroke-linejoin="round"/>
<path d="M40 3L41.4695 5.97746L44.7553 6.45492L42.3776 8.77254L42.9389 12.0451L40 10.5L37.0611 12.0451L37.6224 8.77254L35.2447 6.45492L38.5305 5.97746L40 3Z" fill="#008934" stroke="#008934" stroke-width="1.25" stroke-linejoin="round"/>
<path d="M56 3L57.4695 5.97746L60.7553 6.45492L58.3776 8.77254L58.9389 12.0451L56 10.5L53.0611 12.0451L53.6224 8.77254L51.2447 6.45492L54.5305 5.97746L56 3Z" fill="#008934" stroke="#008934" stroke-width="1.25" stroke-linejoin="round"/>
<path d="M72 3L73.4695 5.97746L76.7553 6.45492L74.3776 8.77254L74.9389 12.0451L72 10.5L69.0611 12.0451L69.6224 8.77254L67.2447 6.45492L70.5305 5.97746L72 3Z" fill="#008934" stroke="#008934" stroke-width="1.25" stroke-linejoin="round"/>
</svg>
