<svg width="24" height="24" viewBox="0 0 24 24" fill="none" xmlns="http://www.w3.org/2000/svg">
<path fill-rule="evenodd" clip-rule="evenodd" d="M19.5686 7.18247C19.5686 7.18247 21.0658 7.0728 21.6667 6.65709C21.6667 6.65709 21.5227 7.13565 19.721 8.64978C19.721 8.64978 20.3276 16.8198 11.0844 18.8207C11.0844 18.8207 6.39684 19.7491 3 17.3809C3 17.3809 6.55591 17.9675 8.55653 15.9161C8.55653 15.9161 5.97589 15.9403 5.15969 13.4995C5.15969 13.4995 6.13408 13.6946 6.71322 13.4506C6.71322 13.4506 3.79006 12.8886 3.84279 9.9347C3.84279 9.9347 4.63284 10.472 5.34358 10.3742C5.34358 10.3742 2.71065 8.29856 4.34305 5.71147C4.34305 5.71147 7.87105 9.57897 12.2436 9.34934C12.1674 9.07247 12.1262 8.78246 12.1262 8.48259C12.1262 6.55973 13.8087 5 15.8837 5C16.9321 5 17.8803 5.39846 18.5623 6.04051C19.0621 6.04831 20.0901 5.96574 21.1168 5.28426C21.1168 5.28467 21.1757 6.02942 19.5686 7.18247Z" fill="white"/>
</svg> 
